<svg xmlns="http://www.w3.org/2000/svg" viewBox="0 0 77.55 78.68"><defs><style>.cls-1{fill:#845ec2;fill-rule:evenodd;}</style></defs><g id="Layer_2" data-name="Layer 2"><g id="Layer_1-2" data-name="Layer 1"><g id="Layer_2-2" data-name="Layer 2"><g id="Layer_1-2-2" data-name="Layer 1-2"><path class="cls-1" d="M43.35,28.72a42.57,42.57,0,0,0,11.38-7.78c4.1-4.26,5.54-7.7,1.14-7,2.4-1.9,5.6-3.44,6.4-1.22s0,6.42-2,9.46a20.16,20.16,0,0,1-8.9,7.64c-3.2,1.08-6.88,1.08-8-1.14"/><path class="cls-1" d="M34.27,28.54v7.8s-9.52,2.44-8.56,11.22c-2.24-2.3-7-7,2.88-15.08a38.54,38.54,0,0,1,5.68-3.18"/><path class="cls-1" d="M28,62a7.26,7.26,0,0,1-3.64-4.76,10.13,10.13,0,0,1-1-2.84c.54-.82,1,.2,1,.2a23.28,23.28,0,0,1,1.34,3.78c.24,1.08.62,1.22.76.94a2.3,2.3,0,0,0,0-.74s-.14-.88-.38-2.3.82-.6,1-.14a18.28,18.28,0,0,0,.58,2.64c.58,2,.76,2.64,1.28,2.64s.38-.54,0-2.22.92-.34,1,0S31,63.5,31,63.5A16.72,16.72,0,0,1,28,62m14,8.52h2.48a30.48,30.48,0,0,0,13.42-3.18c9.72-5,7.42-11,7.42-11a28.19,28.19,0,0,1-24.8,9.84,6.86,6.86,0,0,0-4-5.34c-3.12-1.82-4.4-2.44-4.4-2.44s-1.54-.34-.58.94a21.11,21.11,0,0,0,3.4,3,2.78,2.78,0,0,1,1,2.62c-.1,1.3-2.54,1-4,.42a16.8,16.8,0,0,1-7.22-4.6,23.9,23.9,0,0,1-2.82-6.42s-1.6-2.16-1.6-.54a16.35,16.35,0,0,0,1.78,5.54,18.42,18.42,0,0,0,7.74,8.4,30.55,30.55,0,0,0,12.26,2.76Z"/><path class="cls-1" d="M62,70.54c-.1,0-.14,0-.2.14s.1-.14.14-.14h0m.72-62.92A35.57,35.57,0,0,0,45.77,3.44a36,36,0,1,0,16,68.22,39.34,39.34,0,1,1,.9-64Z"/><path class="cls-1" d="M18.69,21.3a28.29,28.29,0,0,1,21.58-10A31,31,0,0,1,52.81,14a31.28,31.28,0,0,1,6.32-3.82,32.52,32.52,0,0,0-13.78-3.1A32.14,32.14,0,0,0,18.69,21.3h0m10,45.44a31.27,31.27,0,0,0,16.68,4.8A32.24,32.24,0,0,0,65,13.78a18.22,18.22,0,0,1-2.16,7.16A26.59,26.59,0,0,1,69.93,39.4c-.38,18.74-13.52,29.48-29.8,29.48a28.62,28.62,0,0,1-11.48-2.24h0Z"/><path class="cls-1" d="M40.53,28.52a29.15,29.15,0,0,1,4.54-4.2c2.92-2.22,6.8-5.28,8-5.88s3-1,2.64,1.76c1.42-1.28,5.2-5.68,3.24-6.7-1.62-.8-3.54.74-5,1.84-2.2,1.54-7.78,6.42-7.7,6.34s1.74-5-.18-7.44S39.17,11.48,37.87,17a10.92,10.92,0,0,0,0,6s-.18-6.7,3.06-8.58,4.88,2,4.54,4a14.66,14.66,0,0,1-1.2,3.6c-1.4,2.68-2.2,3.26-3.8,6.48"/><path class="cls-1" d="M46.79,31.76A15.27,15.27,0,0,0,51,31.42c1-.2,1.34,0,1,1.28a31.79,31.79,0,0,1-3.78,7.44c-.58,1.16-.1.88-.2,1.56a10,10,0,0,1,0,3.78,13.85,13.85,0,0,0-.9,3.8c-.1,1.42-.2,2.7-.2,2.7a14.47,14.47,0,0,1,.72-6.9c.52-1.62-.2-2.78-.38-4.2a2.81,2.81,0,0,1,1-2c.38-.42.48-6.3-1.3-7"/><path class="cls-1" d="M36.51,56.92s-11-9.4-8.5-17.32A10.15,10.15,0,0,0,25.33,47s2.16,3.3,11.18,10"/><path class="cls-1" d="M40.13,24.94S35.55,27.7,38.41,38.8s2.54,14.12,0,18.66a36,36,0,0,0-1-16.9c-2.38-6.64-1-12.46,2.68-15.62"/><path class="cls-1" d="M41,56.3c-.2.2-.78-.14-1.3-.68s-.76-1.14-.58-1.34.78.14,1.3.74.76,1.14.58,1.28m1.52-2.64c-.14.34-1,.22-1.86-.2s-1.54-.94-1.38-1.28.94-.28,1.86.14S42.63,53.3,42.49,53.66ZM43,50.82c0,.34-1,.48-2,.28s-1.88-.68-1.78-1,1-.54,2-.34S43.07,50.42,43,50.82Zm-1.86-2.16c-1,0-1.78-.46-1.72-.88s.86-.68,1.86-.54,1.76.48,1.72.88S42.13,48.8,41.11,48.66Zm0-2.12c-1,0-1.76-.28-1.76-.68s.8-.68,1.76-.68,1.82.34,1.82.68-.8.68-1.78.68Zm-.1-2c-1.18.14-2.2,0-2.24-.4s.9-.74,2.1-.88,2.2,0,2.26.4-.88.82-2,.88Zm-.74-4c-1,.14-2,0-2-.34s.72-.82,1.72-1,2,0,2,.34-.64.82-1.68,1Zm-1-2c-1,.22-1.82,0-1.88-.32s.68-.82,1.64-1,1.86,0,1.9.34-.62.82-1.62.94Zm-1-2c-1,.14-2,0-2-.32s.76-.68,1.82-.82,2,0,2,.4-.74.62-1.78.74Zm-.72-4c-.92,0-1.62-.2-1.62-.54s.7-.6,1.62-.6,1.62.26,1.62.6-.68.54-1.58.54Zm-.2-2c-.76,0-1.42-.28-1.42-.62s.66-.54,1.42-.54,1.44.28,1.44.54-.64.62-1.4.62Zm.46-2c-.52,0-1-.2-1-.48s.44-.48,1-.48,1,.22,1,.48-.38.48-.92.48Zm1-2c-.42,0-.76-.14-.76-.34s.34-.4.76-.4.76.2.76.4-.28.34-.72.34Z"/></g></g></g></g></svg>